<mxfile host="app.diagrams.net" modified="2023-11-15T18:44:16.360Z" agent="Mozilla/5.0 (Windows NT 10.0; Win64; x64) AppleWebKit/537.36 (KHTML, like Gecko) Chrome/119.0.0.0 Safari/537.36" etag="k9ND32krv5Mv7L54xBa5" version="22.1.1" type="device">
  <diagram name="Page-1" id="TRfsJ-bcwL-LOgRQnBOv">
    <mxGraphModel dx="1722" dy="463" grid="1" gridSize="10" guides="1" tooltips="1" connect="1" arrows="1" fold="1" page="1" pageScale="1" pageWidth="690" pageHeight="980" math="0" shadow="0">
      <root>
        <mxCell id="0" />
        <mxCell id="1" parent="0" />
        <mxCell id="O1bEAq7fIX-_J3iTBhHr-72" value="" style="group" vertex="1" connectable="0" parent="1">
          <mxGeometry x="-680" width="670" height="970" as="geometry" />
        </mxCell>
        <mxCell id="O1bEAq7fIX-_J3iTBhHr-9" value="" style="shape=umlLifeline;perimeter=lifelinePerimeter;whiteSpace=wrap;html=1;container=1;dropTarget=0;collapsible=0;recursiveResize=0;outlineConnect=0;portConstraint=eastwest;newEdgeStyle={&quot;curved&quot;:0,&quot;rounded&quot;:0};participant=umlActor;" vertex="1" parent="O1bEAq7fIX-_J3iTBhHr-72">
          <mxGeometry x="39.04599560004079" y="7.404580152671756" width="9.761498900010197" height="888.5496183206106" as="geometry" />
        </mxCell>
        <mxCell id="O1bEAq7fIX-_J3iTBhHr-11" value="&lt;font style=&quot;font-size: 10px;&quot;&gt;InstapaySystem&lt;/font&gt;" style="shape=umlLifeline;perimeter=lifelinePerimeter;whiteSpace=wrap;html=1;container=1;dropTarget=0;collapsible=0;recursiveResize=0;outlineConnect=0;portConstraint=eastwest;newEdgeStyle={&quot;curved&quot;:0,&quot;rounded&quot;:0};" vertex="1" parent="O1bEAq7fIX-_J3iTBhHr-72">
          <mxGeometry x="92.73423955009687" width="48.80749450005099" height="895.9541984732825" as="geometry" />
        </mxCell>
        <mxCell id="O1bEAq7fIX-_J3iTBhHr-13" value="" style="html=1;points=[[0,0,0,0,5],[0,1,0,0,-5],[1,0,0,0,5],[1,1,0,0,-5]];perimeter=orthogonalPerimeter;outlineConnect=0;targetShapes=umlLifeline;portConstraint=eastwest;newEdgeStyle={&quot;curved&quot;:0,&quot;rounded&quot;:0};" vertex="1" parent="O1bEAq7fIX-_J3iTBhHr-11">
          <mxGeometry x="21.963372525022947" y="44.42748091603053" width="4.880749450005099" height="814.5038167938931" as="geometry" />
        </mxCell>
        <mxCell id="O1bEAq7fIX-_J3iTBhHr-24" value="&lt;font style=&quot;font-size: 9px;&quot;&gt;verifyRegistration(user)&lt;/font&gt;" style="html=1;align=left;spacingLeft=2;endArrow=block;rounded=0;edgeStyle=orthogonalEdgeStyle;curved=0;rounded=0;" edge="1" parent="O1bEAq7fIX-_J3iTBhHr-11">
          <mxGeometry relative="1" as="geometry">
            <mxPoint x="26.844121975028045" y="177.70992366412213" as="sourcePoint" />
            <Array as="points">
              <mxPoint x="41.486370325043346" y="199.9236641221374" />
            </Array>
            <mxPoint x="29.284496700030598" y="199.9236641221374" as="targetPoint" />
          </mxGeometry>
        </mxCell>
        <mxCell id="O1bEAq7fIX-_J3iTBhHr-14" value="&lt;font style=&quot;font-size: 9px;&quot;&gt;Register()&lt;/font&gt;" style="html=1;verticalAlign=bottom;startArrow=oval;endArrow=block;startSize=8;curved=0;rounded=0;entryX=0;entryY=0;entryDx=0;entryDy=5;" edge="1" target="O1bEAq7fIX-_J3iTBhHr-13" parent="O1bEAq7fIX-_J3iTBhHr-72" source="O1bEAq7fIX-_J3iTBhHr-9">
          <mxGeometry relative="1" as="geometry">
            <mxPoint x="82.97274065008668" y="48.12977099236641" as="sourcePoint" />
          </mxGeometry>
        </mxCell>
        <mxCell id="O1bEAq7fIX-_J3iTBhHr-15" value="&lt;font style=&quot;font-size: 10px;&quot;&gt;Presenter&lt;/font&gt;" style="shape=umlLifeline;perimeter=lifelinePerimeter;whiteSpace=wrap;html=1;container=1;dropTarget=0;collapsible=0;recursiveResize=0;outlineConnect=0;portConstraint=eastwest;newEdgeStyle={&quot;curved&quot;:0,&quot;rounded&quot;:0};" vertex="1" parent="O1bEAq7fIX-_J3iTBhHr-72">
          <mxGeometry x="180.58772965018866" width="48.80749450005099" height="895.9541984732825" as="geometry" />
        </mxCell>
        <mxCell id="O1bEAq7fIX-_J3iTBhHr-18" value="" style="html=1;points=[[0,0,0,0,5],[0,1,0,0,-5],[1,0,0,0,5],[1,1,0,0,-5]];perimeter=orthogonalPerimeter;outlineConnect=0;targetShapes=umlLifeline;portConstraint=eastwest;newEdgeStyle={&quot;curved&quot;:0,&quot;rounded&quot;:0};" vertex="1" parent="O1bEAq7fIX-_J3iTBhHr-15">
          <mxGeometry x="21.963372525022947" y="59.23664122137405" width="4.880749450005099" height="111.06870229007633" as="geometry" />
        </mxCell>
        <mxCell id="O1bEAq7fIX-_J3iTBhHr-19" value="&lt;font style=&quot;font-size: 9px;&quot;&gt;registerUser()&lt;/font&gt;" style="html=1;verticalAlign=bottom;startArrow=oval;endArrow=block;startSize=8;curved=0;rounded=0;entryX=0;entryY=0;entryDx=0;entryDy=5;" edge="1" target="O1bEAq7fIX-_J3iTBhHr-18" parent="O1bEAq7fIX-_J3iTBhHr-72" source="O1bEAq7fIX-_J3iTBhHr-13">
          <mxGeometry relative="1" as="geometry">
            <mxPoint x="136.66098460014277" y="62.93893129770992" as="sourcePoint" />
          </mxGeometry>
        </mxCell>
        <mxCell id="O1bEAq7fIX-_J3iTBhHr-20" value="&lt;font style=&quot;font-size: 9px;&quot;&gt;RequestUserDetails&lt;/font&gt;" style="html=1;verticalAlign=bottom;startArrow=oval;startFill=1;endArrow=block;startSize=8;curved=0;rounded=0;" edge="1" parent="O1bEAq7fIX-_J3iTBhHr-72" source="O1bEAq7fIX-_J3iTBhHr-18" target="O1bEAq7fIX-_J3iTBhHr-9">
          <mxGeometry width="60" relative="1" as="geometry">
            <mxPoint x="168.38097527572592" y="103.6641221374046" as="sourcePoint" />
            <mxPoint x="68.33049230007138" y="103.6641221374046" as="targetPoint" />
            <Array as="points">
              <mxPoint x="117.13798680012239" y="103.6641221374046" />
            </Array>
          </mxGeometry>
        </mxCell>
        <mxCell id="O1bEAq7fIX-_J3iTBhHr-21" value="&lt;font style=&quot;font-size: 9px;&quot;&gt;Enters U, p, phoneNum,&amp;nbsp;&lt;br&gt;provider&lt;/font&gt;" style="html=1;verticalAlign=bottom;startArrow=oval;startFill=1;endArrow=block;startSize=8;curved=0;rounded=0;" edge="1" parent="O1bEAq7fIX-_J3iTBhHr-72" source="O1bEAq7fIX-_J3iTBhHr-9" target="O1bEAq7fIX-_J3iTBhHr-18">
          <mxGeometry width="60" relative="1" as="geometry">
            <mxPoint x="73.21124175007648" y="148.0916030534351" as="sourcePoint" />
            <mxPoint x="165.94548130017336" y="148.0916030534351" as="targetPoint" />
            <Array as="points">
              <mxPoint x="92.73423955009687" y="133.28244274809163" />
            </Array>
          </mxGeometry>
        </mxCell>
        <mxCell id="O1bEAq7fIX-_J3iTBhHr-22" value="&lt;font style=&quot;font-size: 9px;&quot;&gt;new user&lt;/font&gt;" style="html=1;verticalAlign=bottom;endArrow=open;dashed=1;endSize=8;curved=0;rounded=0;" edge="1" parent="O1bEAq7fIX-_J3iTBhHr-72">
          <mxGeometry relative="1" as="geometry">
            <mxPoint x="202.5511021752116" y="162.90076335877862" as="sourcePoint" />
            <mxPoint x="119.57836152512493" y="162.90076335877862" as="targetPoint" />
            <Array as="points">
              <mxPoint x="146.42248350015296" y="162.90076335877862" />
            </Array>
          </mxGeometry>
        </mxCell>
        <mxCell id="O1bEAq7fIX-_J3iTBhHr-26" value="&lt;font style=&quot;font-size: 10px;&quot;&gt;UserRepository&lt;/font&gt;" style="shape=umlLifeline;perimeter=lifelinePerimeter;whiteSpace=wrap;html=1;container=1;dropTarget=0;collapsible=0;recursiveResize=0;outlineConnect=0;portConstraint=eastwest;newEdgeStyle={&quot;curved&quot;:0,&quot;rounded&quot;:0};" vertex="1" parent="O1bEAq7fIX-_J3iTBhHr-72">
          <mxGeometry x="273.32196920028554" width="48.80749450005099" height="888.5496183206106" as="geometry" />
        </mxCell>
        <mxCell id="O1bEAq7fIX-_J3iTBhHr-29" value="" style="html=1;points=[[0,0,0,0,5],[0,1,0,0,-5],[1,0,0,0,5],[1,1,0,0,-5]];perimeter=orthogonalPerimeter;outlineConnect=0;targetShapes=umlLifeline;portConstraint=eastwest;newEdgeStyle={&quot;curved&quot;:0,&quot;rounded&quot;:0};" vertex="1" parent="O1bEAq7fIX-_J3iTBhHr-26">
          <mxGeometry x="21.963372525022947" y="236.9465648854962" width="4.880749450005099" height="148.0916030534351" as="geometry" />
        </mxCell>
        <mxCell id="O1bEAq7fIX-_J3iTBhHr-27" value="&lt;font style=&quot;font-size: 9px;&quot;&gt;Alternative&lt;/font&gt;" style="shape=umlFrame;whiteSpace=wrap;html=1;pointerEvents=0;" vertex="1" parent="O1bEAq7fIX-_J3iTBhHr-72">
          <mxGeometry x="3.4679810667662274e-15" y="222.13740458015266" width="668.6626746506985" height="747.8625954198474" as="geometry" />
        </mxCell>
        <mxCell id="O1bEAq7fIX-_J3iTBhHr-30" value="&lt;font style=&quot;font-size: 9px;&quot;&gt;isPresent(user)&lt;/font&gt;" style="html=1;verticalAlign=bottom;startArrow=oval;endArrow=block;startSize=8;curved=0;rounded=0;entryX=0;entryY=0;entryDx=0;entryDy=5;" edge="1" target="O1bEAq7fIX-_J3iTBhHr-29" parent="O1bEAq7fIX-_J3iTBhHr-72">
          <mxGeometry relative="1" as="geometry">
            <mxPoint x="119.57836152512493" y="240.64885496183206" as="sourcePoint" />
          </mxGeometry>
        </mxCell>
        <mxCell id="O1bEAq7fIX-_J3iTBhHr-31" value="true" style="html=1;verticalAlign=bottom;endArrow=open;dashed=1;endSize=8;curved=0;rounded=0;" edge="1" parent="O1bEAq7fIX-_J3iTBhHr-72">
          <mxGeometry relative="1" as="geometry">
            <mxPoint x="292.8449670003059" y="266.56488549618325" as="sourcePoint" />
            <mxPoint x="117.13798680012239" y="266.56488549618325" as="targetPoint" />
          </mxGeometry>
        </mxCell>
        <mxCell id="O1bEAq7fIX-_J3iTBhHr-32" value="&lt;font style=&quot;font-size: 9px;&quot;&gt;prompt error homeMenu&lt;/font&gt;" style="html=1;verticalAlign=bottom;endArrow=open;dashed=1;endSize=8;curved=0;rounded=0;" edge="1" parent="O1bEAq7fIX-_J3iTBhHr-72" target="O1bEAq7fIX-_J3iTBhHr-9">
          <mxGeometry relative="1" as="geometry">
            <mxPoint x="114.69761207511982" y="296.1832061068702" as="sourcePoint" />
            <mxPoint x="68.22590481185702" y="296.1832061068702" as="targetPoint" />
          </mxGeometry>
        </mxCell>
        <mxCell id="O1bEAq7fIX-_J3iTBhHr-33" value="" style="endArrow=none;dashed=1;html=1;rounded=0;exitX=-0.002;exitY=0.187;exitDx=0;exitDy=0;exitPerimeter=0;entryX=1;entryY=0.192;entryDx=0;entryDy=0;entryPerimeter=0;" edge="1" parent="O1bEAq7fIX-_J3iTBhHr-72">
          <mxGeometry width="50" height="50" relative="1" as="geometry">
            <mxPoint y="325.80152671755724" as="sourcePoint" />
            <mxPoint x="670" y="329.54083969465654" as="targetPoint" />
          </mxGeometry>
        </mxCell>
        <mxCell id="O1bEAq7fIX-_J3iTBhHr-35" value="&lt;font style=&quot;font-size: 9px;&quot;&gt;checkStrongPass&lt;/font&gt;" style="html=1;align=left;spacingLeft=2;endArrow=block;rounded=0;edgeStyle=orthogonalEdgeStyle;curved=0;rounded=0;" edge="1" parent="O1bEAq7fIX-_J3iTBhHr-72">
          <mxGeometry relative="1" as="geometry">
            <mxPoint x="122.01873625012747" y="385.06778625954195" as="sourcePoint" />
            <Array as="points">
              <mxPoint x="136.66098460014277" y="407.2815267175572" />
            </Array>
            <mxPoint x="124.45911097513002" y="407.2815267175572" as="targetPoint" />
          </mxGeometry>
        </mxCell>
        <mxCell id="O1bEAq7fIX-_J3iTBhHr-36" value="&lt;font style=&quot;font-size: 9px;&quot;&gt;Alternative&lt;/font&gt;" style="shape=umlFrame;whiteSpace=wrap;html=1;pointerEvents=0;" vertex="1" parent="O1bEAq7fIX-_J3iTBhHr-72">
          <mxGeometry x="4.880749450005102" y="362.82442748091603" width="649.139676850678" height="592.3664122137404" as="geometry" />
        </mxCell>
        <mxCell id="O1bEAq7fIX-_J3iTBhHr-37" value="" style="endArrow=none;dashed=1;html=1;rounded=0;exitX=0.001;exitY=0.42;exitDx=0;exitDy=0;exitPerimeter=0;entryX=1.004;entryY=0.116;entryDx=0;entryDy=0;entryPerimeter=0;" edge="1" parent="O1bEAq7fIX-_J3iTBhHr-72" target="O1bEAq7fIX-_J3iTBhHr-36">
          <mxGeometry width="50" height="50" relative="1" as="geometry">
            <mxPoint x="7.65301513760803" y="428.7992366412213" as="sourcePoint" />
            <mxPoint x="552.0127627955767" y="429.4656488549618" as="targetPoint" />
          </mxGeometry>
        </mxCell>
        <mxCell id="O1bEAq7fIX-_J3iTBhHr-38" value="&lt;font style=&quot;font-size: 9px;&quot;&gt;prompt error homeMenu&lt;/font&gt;" style="html=1;verticalAlign=bottom;endArrow=open;dashed=1;endSize=8;curved=0;rounded=0;" edge="1" parent="O1bEAq7fIX-_J3iTBhHr-72">
          <mxGeometry relative="1" as="geometry">
            <mxPoint x="114.69761207511982" y="414.6564885496184" as="sourcePoint" />
            <mxPoint x="43.926745050045895" y="414.6564885496184" as="targetPoint" />
          </mxGeometry>
        </mxCell>
        <mxCell id="O1bEAq7fIX-_J3iTBhHr-40" value="&lt;font style=&quot;font-size: 9px;&quot;&gt;checkMoneyProvider&lt;/font&gt;" style="html=1;align=left;spacingLeft=2;endArrow=block;rounded=0;edgeStyle=orthogonalEdgeStyle;curved=0;rounded=0;" edge="1" parent="O1bEAq7fIX-_J3iTBhHr-72">
          <mxGeometry relative="1" as="geometry">
            <mxPoint x="122.01873625012747" y="459.14320610687014" as="sourcePoint" />
            <Array as="points">
              <mxPoint x="136.66098460014277" y="481.3569465648854" />
            </Array>
            <mxPoint x="124.45911097513002" y="481.3569465648854" as="targetPoint" />
          </mxGeometry>
        </mxCell>
        <mxCell id="O1bEAq7fIX-_J3iTBhHr-41" value="&lt;font style=&quot;font-size: 9px;&quot;&gt;prompt error homeMenu&lt;/font&gt;" style="html=1;verticalAlign=bottom;endArrow=open;dashed=1;endSize=8;curved=0;rounded=0;" edge="1" parent="O1bEAq7fIX-_J3iTBhHr-72">
          <mxGeometry relative="1" as="geometry">
            <mxPoint x="109.81761207511983" y="500.0015267175572" as="sourcePoint" />
            <mxPoint x="39.04674505004589" y="500.0015267175572" as="targetPoint" />
          </mxGeometry>
        </mxCell>
        <mxCell id="O1bEAq7fIX-_J3iTBhHr-42" value="&lt;font style=&quot;font-size: 9px;&quot;&gt;Alternative&lt;/font&gt;" style="shape=umlFrame;whiteSpace=wrap;html=1;pointerEvents=0;" vertex="1" parent="O1bEAq7fIX-_J3iTBhHr-72">
          <mxGeometry x="12.201873625012752" y="444.2748091603053" width="636.9378032256653" height="488.7022900763359" as="geometry" />
        </mxCell>
        <mxCell id="O1bEAq7fIX-_J3iTBhHr-43" value="&lt;font style=&quot;font-size: 10px;&quot;&gt;MoneyTransferFacility&lt;/font&gt;" style="shape=umlLifeline;perimeter=lifelinePerimeter;whiteSpace=wrap;html=1;container=1;dropTarget=0;collapsible=0;recursiveResize=0;outlineConnect=0;portConstraint=eastwest;newEdgeStyle={&quot;curved&quot;:0,&quot;rounded&quot;:0};" vertex="1" parent="O1bEAq7fIX-_J3iTBhHr-72">
          <mxGeometry x="370.000705450413" width="68.33049230007138" height="888.5496183206106" as="geometry" />
        </mxCell>
        <mxCell id="O1bEAq7fIX-_J3iTBhHr-45" value="" style="html=1;points=[[0,0,0,0,5],[0,1,0,0,-5],[1,0,0,0,5],[1,1,0,0,-5]];perimeter=orthogonalPerimeter;outlineConnect=0;targetShapes=umlLifeline;portConstraint=eastwest;newEdgeStyle={&quot;curved&quot;:0,&quot;rounded&quot;:0};" vertex="1" parent="O1bEAq7fIX-_J3iTBhHr-43">
          <mxGeometry x="29.284496700030598" y="518.3206106870228" width="9.761498900010197" height="288.7786259541985" as="geometry" />
        </mxCell>
        <mxCell id="O1bEAq7fIX-_J3iTBhHr-44" value="" style="endArrow=none;dashed=1;html=1;rounded=0;exitX=-0.003;exitY=0.6;exitDx=0;exitDy=0;exitPerimeter=0;" edge="1" parent="O1bEAq7fIX-_J3iTBhHr-72">
          <mxGeometry width="50" height="50" relative="1" as="geometry">
            <mxPoint x="10.86942902516146" y="507.7320610687023" as="sourcePoint" />
            <mxPoint x="649.139676850678" y="510.91603053435114" as="targetPoint" />
          </mxGeometry>
        </mxCell>
        <mxCell id="O1bEAq7fIX-_J3iTBhHr-46" value="&lt;font style=&quot;font-size: 9px;&quot;&gt;verifyAccount(moneyProvider, accIdentfier, phoneNum)&lt;/font&gt;" style="html=1;verticalAlign=bottom;startArrow=oval;endArrow=block;startSize=8;curved=0;rounded=0;entryX=0;entryY=0;entryDx=0;entryDy=5;" edge="1" parent="O1bEAq7fIX-_J3iTBhHr-72">
          <mxGeometry relative="1" as="geometry">
            <mxPoint x="43.69804707581702" y="533.1297709923665" as="sourcePoint" />
            <mxPoint x="424.84971662514386" y="533.1297709923665" as="targetPoint" />
          </mxGeometry>
        </mxCell>
        <mxCell id="O1bEAq7fIX-_J3iTBhHr-47" value="&lt;font style=&quot;font-size: 10px;&quot;&gt;ProviderEndpoint&lt;/font&gt;" style="shape=umlLifeline;perimeter=lifelinePerimeter;whiteSpace=wrap;html=1;container=1;dropTarget=0;collapsible=0;recursiveResize=0;outlineConnect=0;portConstraint=eastwest;newEdgeStyle={&quot;curved&quot;:0,&quot;rounded&quot;:0};" vertex="1" parent="O1bEAq7fIX-_J3iTBhHr-72">
          <mxGeometry x="489.9964439005201" width="48.80749450005099" height="888.5496183206106" as="geometry" />
        </mxCell>
        <mxCell id="O1bEAq7fIX-_J3iTBhHr-51" value="Alternative" style="shape=umlFrame;whiteSpace=wrap;html=1;pointerEvents=0;" vertex="1" parent="O1bEAq7fIX-_J3iTBhHr-72">
          <mxGeometry x="21.963372525022947" y="644.1984732824428" width="624.7359296006526" height="259.1603053435114" as="geometry" />
        </mxCell>
        <mxCell id="O1bEAq7fIX-_J3iTBhHr-52" value="" style="endArrow=none;dashed=1;html=1;rounded=0;exitX=-0.004;exitY=0.307;exitDx=0;exitDy=0;exitPerimeter=0;entryX=0.999;entryY=0.343;entryDx=0;entryDy=0;entryPerimeter=0;" edge="1" parent="O1bEAq7fIX-_J3iTBhHr-72">
          <mxGeometry width="50" height="50" relative="1" as="geometry">
            <mxPoint x="17.321779798067983" y="733.0534351145036" as="sourcePoint" />
            <mxPoint x="644.0197706776228" y="733.090458015267" as="targetPoint" />
          </mxGeometry>
        </mxCell>
        <mxCell id="O1bEAq7fIX-_J3iTBhHr-60" value="&lt;font style=&quot;font-size: 10px;&quot;&gt;AccountRepository&lt;/font&gt;" style="shape=umlLifeline;perimeter=lifelinePerimeter;whiteSpace=wrap;html=1;container=1;dropTarget=0;collapsible=0;recursiveResize=0;outlineConnect=0;portConstraint=eastwest;newEdgeStyle={&quot;curved&quot;:0,&quot;rounded&quot;:0};" vertex="1" parent="O1bEAq7fIX-_J3iTBhHr-72">
          <mxGeometry x="597.8906834506171" width="48.80749450005099" height="895.9541984732825" as="geometry" />
        </mxCell>
        <mxCell id="O1bEAq7fIX-_J3iTBhHr-61" value="" style="html=1;points=[[0,0,0,0,5],[0,1,0,0,-5],[1,0,0,0,5],[1,1,0,0,-5]];perimeter=orthogonalPerimeter;outlineConnect=0;targetShapes=umlLifeline;portConstraint=eastwest;newEdgeStyle={&quot;curved&quot;:0,&quot;rounded&quot;:0};" vertex="1" parent="O1bEAq7fIX-_J3iTBhHr-60">
          <mxGeometry x="19.522997800020395" y="607.1755725190841" width="9.761498900010197" height="192.51908396946564" as="geometry" />
        </mxCell>
        <mxCell id="O1bEAq7fIX-_J3iTBhHr-63" value="&lt;font style=&quot;font-size: 9px;&quot;&gt;found&lt;/font&gt;" style="html=1;verticalAlign=bottom;endArrow=open;dashed=1;endSize=8;curved=0;rounded=0;" edge="1" parent="O1bEAq7fIX-_J3iTBhHr-72">
          <mxGeometry relative="1" as="geometry">
            <mxPoint x="610.0936812506375" y="659.0076335877862" as="sourcePoint" />
            <mxPoint x="524.680565875548" y="659.0076335877862" as="targetPoint" />
          </mxGeometry>
        </mxCell>
        <mxCell id="O1bEAq7fIX-_J3iTBhHr-64" value="&lt;font style=&quot;font-size: 9px;&quot;&gt;verified&lt;/font&gt;" style="html=1;verticalAlign=bottom;endArrow=open;dashed=1;endSize=8;curved=0;rounded=0;" edge="1" parent="O1bEAq7fIX-_J3iTBhHr-72" source="O1bEAq7fIX-_J3iTBhHr-49">
          <mxGeometry relative="1" as="geometry">
            <mxPoint x="510.03831752553293" y="688.6259541984732" as="sourcePoint" />
            <mxPoint x="410" y="689" as="targetPoint" />
          </mxGeometry>
        </mxCell>
        <mxCell id="O1bEAq7fIX-_J3iTBhHr-65" value="&lt;font style=&quot;font-size: 9px;&quot;&gt;verified&lt;/font&gt;" style="html=1;verticalAlign=bottom;endArrow=open;dashed=1;endSize=8;curved=0;rounded=0;" edge="1" parent="O1bEAq7fIX-_J3iTBhHr-72">
          <mxGeometry relative="1" as="geometry">
            <mxPoint x="400" y="703" as="sourcePoint" />
            <mxPoint x="119.57836152512493" y="703.4351145038169" as="targetPoint" />
          </mxGeometry>
        </mxCell>
        <mxCell id="O1bEAq7fIX-_J3iTBhHr-66" value="&lt;font style=&quot;font-size: 9px;&quot;&gt;promptSuccessful&lt;/font&gt;" style="html=1;verticalAlign=bottom;endArrow=open;dashed=1;endSize=8;curved=0;rounded=0;" edge="1" parent="O1bEAq7fIX-_J3iTBhHr-72">
          <mxGeometry relative="1" as="geometry">
            <mxPoint x="114.69761207511982" y="710.8396946564885" as="sourcePoint" />
            <mxPoint x="43.926745050045895" y="710.8396946564885" as="targetPoint" />
          </mxGeometry>
        </mxCell>
        <mxCell id="O1bEAq7fIX-_J3iTBhHr-67" value="&lt;font style=&quot;font-size: 9px;&quot;&gt;notFound&lt;/font&gt;" style="html=1;verticalAlign=bottom;endArrow=open;dashed=1;endSize=8;curved=0;rounded=0;" edge="1" parent="O1bEAq7fIX-_J3iTBhHr-72">
          <mxGeometry relative="1" as="geometry">
            <mxPoint x="607.6533065256349" y="762.6717557251909" as="sourcePoint" />
            <mxPoint x="522.2401911505456" y="762.6717557251909" as="targetPoint" />
          </mxGeometry>
        </mxCell>
        <mxCell id="O1bEAq7fIX-_J3iTBhHr-68" value="&lt;font style=&quot;font-size: 9px;&quot;&gt;verFailed&lt;/font&gt;" style="html=1;verticalAlign=bottom;endArrow=open;dashed=1;endSize=8;curved=0;rounded=0;" edge="1" parent="O1bEAq7fIX-_J3iTBhHr-72" target="O1bEAq7fIX-_J3iTBhHr-45">
          <mxGeometry relative="1" as="geometry">
            <mxPoint x="517.3594417005405" y="770.0763358778626" as="sourcePoint" />
            <mxPoint x="478.31344610049973" y="770.0763358778626" as="targetPoint" />
          </mxGeometry>
        </mxCell>
        <mxCell id="O1bEAq7fIX-_J3iTBhHr-69" value="&lt;font style=&quot;font-size: 9px;&quot;&gt;failed&lt;/font&gt;" style="html=1;verticalAlign=bottom;endArrow=open;dashed=1;endSize=8;curved=0;rounded=0;" edge="1" parent="O1bEAq7fIX-_J3iTBhHr-72" source="O1bEAq7fIX-_J3iTBhHr-45">
          <mxGeometry relative="1" as="geometry">
            <mxPoint x="422.18482742544086" y="792.2900763358779" as="sourcePoint" />
            <mxPoint x="117.13798680012239" y="792.2900763358779" as="targetPoint" />
          </mxGeometry>
        </mxCell>
        <mxCell id="O1bEAq7fIX-_J3iTBhHr-70" value="&lt;font style=&quot;font-size: 9px;&quot;&gt;promptSuccessful&lt;/font&gt;" style="html=1;verticalAlign=bottom;endArrow=open;dashed=1;endSize=8;curved=0;rounded=0;" edge="1" parent="O1bEAq7fIX-_J3iTBhHr-72">
          <mxGeometry relative="1" as="geometry">
            <mxPoint x="114.69761207511982" y="836.7175572519084" as="sourcePoint" />
            <mxPoint x="43.926745050045895" y="836.7175572519084" as="targetPoint" />
          </mxGeometry>
        </mxCell>
        <mxCell id="O1bEAq7fIX-_J3iTBhHr-71" value="&lt;font style=&quot;font-size: 9px;&quot;&gt;false&lt;/font&gt;" style="html=1;verticalAlign=bottom;endArrow=open;dashed=1;endSize=8;curved=0;rounded=0;" edge="1" parent="O1bEAq7fIX-_J3iTBhHr-72">
          <mxGeometry relative="1" as="geometry">
            <mxPoint x="292.8449670003059" y="377.6335877862596" as="sourcePoint" />
            <mxPoint x="122.01873625012747" y="377.6335877862596" as="targetPoint" />
          </mxGeometry>
        </mxCell>
        <mxCell id="O1bEAq7fIX-_J3iTBhHr-49" value="" style="html=1;points=[[0,0,0,0,5],[0,1,0,0,-5],[1,0,0,0,5],[1,1,0,0,-5]];perimeter=orthogonalPerimeter;outlineConnect=0;targetShapes=umlLifeline;portConstraint=eastwest;newEdgeStyle={&quot;curved&quot;:0,&quot;rounded&quot;:0};" vertex="1" parent="O1bEAq7fIX-_J3iTBhHr-72">
          <mxGeometry x="505.9764439005201" y="547.94" width="16.84" height="244.35" as="geometry" />
        </mxCell>
        <mxCell id="O1bEAq7fIX-_J3iTBhHr-50" value="&lt;font style=&quot;font-size: 9px;&quot;&gt;verifyAcc(accIdentfire, phoneNum&lt;/font&gt;" style="html=1;verticalAlign=bottom;startArrow=oval;endArrow=block;startSize=8;curved=0;rounded=0;entryX=0;entryY=0;entryDx=0;entryDy=5;" edge="1" parent="O1bEAq7fIX-_J3iTBhHr-72">
          <mxGeometry relative="1" as="geometry">
            <mxPoint x="409.04670105045375" y="569.998931297713" as="sourcePoint" />
            <mxPoint x="511.95981642554307" y="569.998931297713" as="targetPoint" />
          </mxGeometry>
        </mxCell>
        <mxCell id="O1bEAq7fIX-_J3iTBhHr-62" value="&lt;font style=&quot;font-size: 9px;&quot;&gt;getAccount(accIden, phoneNum)&lt;/font&gt;" style="html=1;verticalAlign=bottom;startArrow=oval;endArrow=block;startSize=8;curved=0;rounded=0;entryX=0;entryY=0;entryDx=0;entryDy=5;" edge="1" target="O1bEAq7fIX-_J3iTBhHr-61" parent="O1bEAq7fIX-_J3iTBhHr-72" source="O1bEAq7fIX-_J3iTBhHr-49">
          <mxGeometry relative="1" as="geometry">
            <mxPoint x="575.9284351006017" y="610.87786259542" as="sourcePoint" />
          </mxGeometry>
        </mxCell>
      </root>
    </mxGraphModel>
  </diagram>
</mxfile>
